<svg aria-hidden="true" style="position: absolute; width: 0; height: 0; overflow: hidden;" version="1.1" xmlns="http://www.w3.org/2000/svg" xmlns:xlink="http://www.w3.org/1999/xlink">
<defs>
<symbol id="icon-scales-min" viewBox="0 0 32 32">
<path fill="#003466" style="fill: var(--color1, #003466); stroke: var(--color1, #003466)" stroke="#003466" stroke-linejoin="miter" stroke-linecap="butt" stroke-miterlimit="4" stroke-width="0.3556" d="M2.341 10.132c-0.447-0.111-0.774-0.509-0.774-0.983 0-0.559 0.453-1.012 1.012-1.012 0.108 0 0.212 0.017 0.31 0.048l12.099 3.36v-8.558c0-0.236 0.021-0.571 0.155-0.853 0.070-0.155 0.176-0.283 0.308-0.377l0.003-0.002c0.146-0.097 0.326-0.155 0.519-0.155 0.009 0 0.019 0 0.028 0l-0.001-0c0.393 0 0.658 0.174 0.818 0.425 0.149 0.238 0.194 0.533 0.194 0.782v9.3l12.647 3.513c0.414 0.133 0.709 0.515 0.709 0.965 0 0.559-0.453 1.012-1.012 1.012-0.084 0-0.167-0.010-0.245-0.030l0.007 0.001-2.916-0.809 4.053 6.756c0.094 0.156 0.142 0.336 0.142 0.519-0.004 3.514-2.851 6.361-6.364 6.366h-0c-3.514-0.004-6.362-2.852-6.366-6.366v-0c0-0.183 0.050-0.363 0.142-0.521l4.674-7.787-12.347-3.431 4.053 6.756c0.094 0.156 0.142 0.338 0.142 0.521-0.005 3.513-2.851 6.359-6.364 6.364h-0c-0.006 0-0.013 0-0.020 0-1.752 0-3.337-0.712-4.483-1.863l-0-0c-1.152-1.146-1.865-2.732-1.865-4.485 0-0.006 0-0.013 0-0.019v0.001c0-0.181 0.050-0.363 0.144-0.519v0l4.672-7.787M2.341 10.132v0zM2.341 10.132l4.075 1.131M6.416 11.262l0.178 0.050-0.082-0.208-0.096 0.16zM1.808 8.933c0.101-0.355 0.422-0.61 0.803-0.61 0.079 0 0.156 0.011 0.229 0.032l-0.006-0.001 12.156 3.376-13.182-2.796zM15.166 11.595v-8.608c0-0.462 0.087-1.209 0.836-1.209 0.663 0 0.832 0.569 0.832 1.028v9.436l12.779 3.55c0.371 0.089 0.643 0.419 0.643 0.812 0 0.46-0.373 0.834-0.834 0.834-0.091 0-0.179-0.015-0.261-0.042l0.006 0.002-3.095-0.859-10.905-4.944zM28.258 25.045c-0.475 1.925-2.185 3.33-4.224 3.333h-0c-2.048 0-3.769-1.424-4.226-3.333h8.45zM24.036 17.072l3.57 5.95h-7.143l3.57-5.95zM11.538 18.56h-7.141l3.572-5.95 3.568 5.95zM7.968 23.915c-2.044 0-3.767-1.422-4.224-3.333h8.45c-0.475 1.925-2.186 3.331-4.226 3.333h-0z"></path>
</symbol>
</defs>
</svg>
